<svg width="450" height="304" viewBox="0 0 450 304" fill="none" xmlns="http://www.w3.org/2000/svg">
<rect width="26.8276" height="132.299" rx="7.09616" transform="matrix(0.845742 0.533591 -0.511464 0.859305 67.7168 64)" fill="black"/>
<path fill-rule="evenodd" clip-rule="evenodd" d="M107.752 116.462C105.041 111.628 98.0838 111.628 95.3732 116.462L59.0928 181.159C56.4403 185.889 59.859 191.726 65.2823 191.726H75.1689L96.0873 156.581C98.0918 153.214 102.404 152.179 105.718 154.27L116.404 161.012C119.719 163.103 120.781 167.529 118.777 170.896L106.379 191.726H137.843C143.266 191.726 146.685 185.889 144.032 181.159L107.752 116.462Z" fill="black"/>
<path d="M245.237 109H254.197V173H245.237L244.917 161.096C242.827 165.149 239.904 168.435 236.149 170.952C232.395 173.427 227.915 174.664 222.709 174.664C218.016 174.664 213.621 173.789 209.525 172.04C205.429 170.248 201.824 167.795 198.709 164.68C195.595 161.565 193.163 157.96 191.413 153.864C189.664 149.768 188.789 145.373 188.789 140.68C188.789 136.072 189.643 131.741 191.349 127.688C193.099 123.635 195.488 120.072 198.517 117C201.589 113.928 205.131 111.539 209.141 109.832C213.195 108.083 217.525 107.208 222.133 107.208C227.467 107.208 232.117 108.488 236.085 111.048C240.053 113.565 243.211 116.872 245.557 120.968L245.237 109ZM222.517 165.96C227.083 165.96 231.008 164.851 234.293 162.632C237.579 160.371 240.096 157.341 241.845 153.544C243.637 149.747 244.533 145.565 244.533 141C244.533 136.307 243.637 132.083 241.845 128.328C240.053 124.531 237.515 121.523 234.229 119.304C230.944 117.085 227.04 115.976 222.517 115.976C217.995 115.976 213.856 117.107 210.101 119.368C206.389 121.587 203.424 124.595 201.205 128.392C199.029 132.189 197.941 136.392 197.941 141C197.941 145.651 199.072 149.875 201.333 153.672C203.595 157.427 206.581 160.413 210.293 162.632C214.048 164.851 218.123 165.96 222.517 165.96ZM311.45 156.936L319.45 161.288C316.549 165.341 312.858 168.584 308.378 171.016C303.941 173.448 299.12 174.664 293.914 174.664C288.026 174.664 282.65 173.149 277.786 170.12C272.965 167.091 269.104 163.037 266.202 157.96C263.344 152.84 261.914 147.187 261.914 141C261.914 136.307 262.746 131.933 264.41 127.88C266.074 123.784 268.357 120.2 271.258 117.128C274.202 114.013 277.616 111.581 281.498 109.832C285.381 108.083 289.52 107.208 293.914 107.208C299.12 107.208 303.941 108.424 308.378 110.856C312.858 113.288 316.549 116.552 319.45 120.648L311.45 124.936C309.232 122.12 306.565 119.965 303.45 118.472C300.336 116.936 297.157 116.168 293.914 116.168C289.605 116.168 285.701 117.32 282.202 119.624C278.704 121.885 275.93 124.893 273.882 128.648C271.877 132.403 270.874 136.52 270.874 141C270.874 145.48 271.898 149.597 273.946 153.352C276.037 157.107 278.832 160.115 282.33 162.376C285.829 164.595 289.69 165.704 293.914 165.704C297.413 165.704 300.698 164.893 303.77 163.272C306.842 161.651 309.402 159.539 311.45 156.936ZM358.289 174.664C352.401 174.664 347.025 173.149 342.161 170.12C337.34 167.091 333.479 163.037 330.577 157.96C327.719 152.84 326.289 147.187 326.289 141C326.289 136.307 327.121 131.933 328.785 127.88C330.449 123.784 332.732 120.2 335.633 117.128C338.577 114.013 341.991 111.581 345.873 109.832C349.756 108.083 353.895 107.208 358.289 107.208C364.177 107.208 369.532 108.723 374.353 111.752C379.217 114.781 383.079 118.856 385.937 123.976C388.839 129.096 390.289 134.771 390.289 141C390.289 145.651 389.457 150.003 387.793 154.056C386.129 158.109 383.825 161.693 380.881 164.808C377.98 167.88 374.588 170.291 370.705 172.04C366.865 173.789 362.727 174.664 358.289 174.664ZM358.289 165.704C362.641 165.704 366.545 164.573 370.001 162.312C373.5 160.008 376.252 156.979 378.257 153.224C380.305 149.469 381.329 145.395 381.329 141C381.329 136.52 380.305 132.403 378.257 128.648C376.209 124.851 373.436 121.821 369.937 119.56C366.481 117.299 362.599 116.168 358.289 116.168C353.937 116.168 350.012 117.32 346.513 119.624C343.057 121.885 340.305 124.893 338.257 128.648C336.252 132.403 335.249 136.52 335.249 141C335.249 145.608 336.295 149.789 338.385 153.544C340.476 157.256 343.271 160.221 346.769 162.44C350.268 164.616 354.108 165.704 358.289 165.704ZM421.03 174.216C417.532 174.131 414.118 173.491 410.79 172.296C407.462 171.101 404.561 169.48 402.086 167.432C399.612 165.384 397.841 163.059 396.774 160.456L404.518 157.128C405.201 158.792 406.46 160.328 408.294 161.736C410.172 163.101 412.305 164.211 414.694 165.064C417.084 165.875 419.452 166.28 421.798 166.28C424.401 166.28 426.833 165.853 429.094 165C431.356 164.147 433.19 162.931 434.598 161.352C436.049 159.731 436.774 157.832 436.774 155.656C436.774 153.309 436.006 151.475 434.47 150.152C432.934 148.787 430.993 147.72 428.646 146.952C426.3 146.141 423.889 145.373 421.414 144.648C416.892 143.411 412.902 142.045 409.446 140.552C405.99 139.059 403.281 137.16 401.318 134.856C399.398 132.509 398.438 129.501 398.438 125.832C398.438 121.949 399.526 118.6 401.702 115.784C403.921 112.925 406.801 110.728 410.342 109.192C413.926 107.613 417.745 106.824 421.798 106.824C427.004 106.824 431.74 107.955 436.006 110.216C440.316 112.477 443.43 115.485 445.35 119.24L438.118 123.528C437.35 121.779 436.134 120.264 434.47 118.984C432.806 117.704 430.908 116.701 428.774 115.976C426.684 115.251 424.55 114.867 422.374 114.824C419.644 114.781 417.105 115.187 414.758 116.04C412.412 116.851 410.513 118.067 409.062 119.688C407.654 121.309 406.95 123.293 406.95 125.64C406.95 127.987 407.654 129.779 409.062 131.016C410.47 132.211 412.369 133.192 414.758 133.96C417.19 134.685 419.921 135.539 422.95 136.52C426.833 137.757 430.481 139.165 433.894 140.744C437.308 142.323 440.06 144.285 442.15 146.632C444.241 148.979 445.265 151.944 445.222 155.528C445.222 159.368 444.07 162.717 441.766 165.576C439.462 168.435 436.476 170.632 432.806 172.168C429.137 173.661 425.212 174.344 421.03 174.216Z" fill="black"/>
<path d="M9.024 288.12C7.84 288.12 6.76 287.88 5.784 287.4C4.808 286.904 3.968 286.248 3.264 285.432C2.56 284.616 2.016 283.696 1.632 282.672C1.248 281.632 1.056 280.568 1.056 279.48C1.056 278.344 1.256 277.264 1.656 276.24C2.056 275.2 2.616 274.28 3.336 273.48C4.072 272.664 4.92 272.024 5.88 271.56C6.856 271.08 7.912 270.84 9.048 270.84C10.248 270.84 11.328 271.088 12.288 271.584C13.264 272.08 14.104 272.744 14.808 273.576C15.512 274.408 16.056 275.336 16.44 276.36C16.824 277.384 17.016 278.424 17.016 279.48C17.016 280.632 16.816 281.728 16.416 282.768C16.016 283.792 15.448 284.712 14.712 285.528C13.992 286.328 13.144 286.96 12.168 287.424C11.208 287.888 10.16 288.12 9.024 288.12ZM9.048 286.992C10.056 286.992 10.976 286.776 11.808 286.344C12.64 285.912 13.352 285.336 13.944 284.616C14.536 283.896 14.984 283.096 15.288 282.216C15.608 281.32 15.768 280.408 15.768 279.48C15.768 278.504 15.6 277.568 15.264 276.672C14.944 275.776 14.48 274.976 13.872 274.272C13.264 273.568 12.544 273.008 11.712 272.592C10.896 272.176 10.008 271.968 9.048 271.968C8.024 271.968 7.096 272.184 6.264 272.616C5.432 273.048 4.72 273.624 4.128 274.344C3.552 275.064 3.096 275.872 2.76 276.768C2.44 277.648 2.28 278.552 2.28 279.48C2.28 280.456 2.448 281.392 2.784 282.288C3.12 283.184 3.584 283.984 4.176 284.688C4.784 285.392 5.496 285.952 6.312 286.368C7.144 286.784 8.056 286.992 9.048 286.992ZM11.064 283.056H12.336L16.44 288H15.168L11.064 283.056ZM56.7829 288.12C55.4229 288.12 54.2869 287.88 53.3749 287.4C52.4629 286.92 51.7349 286.272 51.1909 285.456C50.6469 284.624 50.2549 283.696 50.0149 282.672C49.7749 281.648 49.6549 280.6 49.6549 279.528V270.96H50.8789V279.528C50.8789 280.456 50.9749 281.368 51.1669 282.264C51.3589 283.16 51.6709 283.968 52.1029 284.688C52.5509 285.392 53.1509 285.952 53.9029 286.368C54.6709 286.784 55.6229 286.992 56.7589 286.992C57.9109 286.992 58.8629 286.776 59.6149 286.344C60.3829 285.912 60.9829 285.344 61.4149 284.64C61.8629 283.92 62.1749 283.12 62.3509 282.24C62.5429 281.344 62.6389 280.44 62.6389 279.528V270.96H63.8629V279.528C63.8629 280.664 63.7349 281.752 63.4789 282.792C63.2389 283.816 62.8389 284.728 62.2789 285.528C61.7189 286.328 60.9909 286.96 60.0949 287.424C59.1989 287.888 58.0949 288.12 56.7829 288.12ZM97.6995 288V270.96H98.9235V288H97.6995ZM131.859 279.36C131.859 278.336 132.035 277.328 132.387 276.336C132.755 275.328 133.283 274.416 133.971 273.6C134.659 272.768 135.499 272.104 136.491 271.608C137.499 271.112 138.643 270.864 139.923 270.864C141.443 270.864 142.739 271.216 143.811 271.92C144.883 272.608 145.683 273.496 146.211 274.584L145.203 275.16C144.803 274.376 144.307 273.752 143.715 273.288C143.139 272.824 142.515 272.496 141.843 272.304C141.171 272.096 140.499 271.992 139.827 271.992C138.755 271.992 137.795 272.208 136.947 272.64C136.115 273.072 135.411 273.648 134.835 274.368C134.259 275.088 133.819 275.888 133.515 276.768C133.227 277.648 133.083 278.536 133.083 279.432C133.083 280.44 133.259 281.4 133.611 282.312C133.963 283.208 134.443 284.008 135.051 284.712C135.675 285.416 136.395 285.976 137.211 286.392C138.043 286.808 138.939 287.016 139.899 287.016C140.587 287.016 141.283 286.904 141.987 286.68C142.707 286.44 143.379 286.08 144.003 285.6C144.627 285.104 145.131 284.464 145.515 283.68L146.571 284.184C146.203 285.032 145.651 285.752 144.915 286.344C144.179 286.936 143.363 287.384 142.467 287.688C141.571 287.992 140.683 288.144 139.803 288.144C138.651 288.144 137.587 287.896 136.611 287.4C135.635 286.888 134.787 286.216 134.067 285.384C133.363 284.536 132.819 283.592 132.435 282.552C132.051 281.496 131.859 280.432 131.859 279.36ZM179.245 288V270.96H180.469V281.304L190.405 270.96H191.821L184.741 278.424L192.181 288H190.765L183.925 279.192L180.469 282.744V288H179.245ZM269.554 273.792C269.282 273.488 268.978 273.224 268.642 273C268.306 272.76 267.946 272.568 267.562 272.424C267.178 272.264 266.762 272.144 266.314 272.064C265.866 271.984 265.386 271.944 264.874 271.944C263.21 271.944 261.994 272.264 261.226 272.904C260.474 273.528 260.098 274.376 260.098 275.448C260.098 276.168 260.266 276.744 260.602 277.176C260.954 277.592 261.498 277.928 262.234 278.184C262.97 278.44 263.922 278.688 265.09 278.928C266.322 279.184 267.386 279.488 268.282 279.84C269.178 280.176 269.866 280.64 270.346 281.232C270.842 281.824 271.09 282.624 271.09 283.632C271.09 284.384 270.946 285.048 270.658 285.624C270.37 286.184 269.954 286.648 269.41 287.016C268.866 287.384 268.218 287.664 267.466 287.856C266.73 288.048 265.906 288.144 264.994 288.144C264.114 288.144 263.274 288.048 262.474 287.856C261.674 287.664 260.922 287.384 260.218 287.016C259.514 286.648 258.858 286.176 258.25 285.6L258.898 284.616C259.25 285 259.642 285.344 260.074 285.648C260.522 285.936 261.002 286.184 261.514 286.392C262.042 286.6 262.602 286.768 263.194 286.896C263.786 287.008 264.402 287.064 265.042 287.064C266.53 287.064 267.69 286.792 268.522 286.248C269.37 285.688 269.794 284.864 269.794 283.776C269.794 283.024 269.602 282.416 269.218 281.952C268.834 281.488 268.242 281.112 267.442 280.824C266.642 280.52 265.642 280.24 264.442 279.984C263.242 279.728 262.218 279.44 261.37 279.12C260.538 278.8 259.906 278.368 259.474 277.824C259.058 277.28 258.85 276.544 258.85 275.616C258.85 274.592 259.098 273.728 259.594 273.024C260.106 272.304 260.818 271.76 261.73 271.392C262.642 271.024 263.69 270.84 264.874 270.84C265.61 270.84 266.29 270.912 266.914 271.056C267.554 271.2 268.138 271.424 268.666 271.728C269.21 272.016 269.714 272.384 270.178 272.832L269.554 273.792ZM315.647 272.064H309.407V288H308.183V272.064H301.943V270.96H315.647V272.064ZM359.29 286.896V288H347.938V270.96H359.074V272.064H349.162V278.76H357.826V279.816H349.162V286.896H359.29ZM392.273 288V270.96H399.281C400.001 270.96 400.657 271.112 401.249 271.416C401.857 271.72 402.385 272.128 402.833 272.64C403.281 273.136 403.625 273.696 403.865 274.32C404.121 274.944 404.249 275.584 404.249 276.24C404.249 277.152 404.041 278.016 403.625 278.832C403.225 279.632 402.665 280.288 401.945 280.8C401.241 281.312 400.401 281.568 399.425 281.568H393.497V288H392.273ZM393.497 280.44H399.377C400.129 280.44 400.777 280.24 401.321 279.84C401.865 279.44 402.281 278.92 402.569 278.28C402.857 277.64 403.001 276.96 403.001 276.24C403.001 275.488 402.825 274.8 402.473 274.176C402.137 273.536 401.681 273.024 401.105 272.64C400.545 272.256 399.921 272.064 399.233 272.064H393.497V280.44ZM446.731 273.792C446.459 273.488 446.155 273.224 445.819 273C445.483 272.76 445.123 272.568 444.739 272.424C444.355 272.264 443.939 272.144 443.491 272.064C443.043 271.984 442.563 271.944 442.051 271.944C440.387 271.944 439.171 272.264 438.403 272.904C437.651 273.528 437.275 274.376 437.275 275.448C437.275 276.168 437.443 276.744 437.779 277.176C438.131 277.592 438.675 277.928 439.411 278.184C440.147 278.44 441.099 278.688 442.267 278.928C443.499 279.184 444.563 279.488 445.459 279.84C446.355 280.176 447.043 280.64 447.523 281.232C448.019 281.824 448.267 282.624 448.267 283.632C448.267 284.384 448.123 285.048 447.835 285.624C447.547 286.184 447.131 286.648 446.587 287.016C446.043 287.384 445.395 287.664 444.643 287.856C443.907 288.048 443.083 288.144 442.171 288.144C441.291 288.144 440.451 288.048 439.651 287.856C438.851 287.664 438.099 287.384 437.395 287.016C436.691 286.648 436.035 286.176 435.427 285.6L436.075 284.616C436.427 285 436.819 285.344 437.251 285.648C437.699 285.936 438.179 286.184 438.691 286.392C439.219 286.6 439.779 286.768 440.371 286.896C440.963 287.008 441.579 287.064 442.219 287.064C443.707 287.064 444.867 286.792 445.699 286.248C446.547 285.688 446.971 284.864 446.971 283.776C446.971 283.024 446.779 282.416 446.395 281.952C446.011 281.488 445.419 281.112 444.619 280.824C443.819 280.52 442.819 280.24 441.619 279.984C440.419 279.728 439.395 279.44 438.547 279.12C437.715 278.8 437.083 278.368 436.651 277.824C436.235 277.28 436.027 276.544 436.027 275.616C436.027 274.592 436.275 273.728 436.771 273.024C437.283 272.304 437.995 271.76 438.907 271.392C439.819 271.024 440.867 270.84 442.051 270.84C442.787 270.84 443.467 270.912 444.091 271.056C444.731 271.2 445.315 271.424 445.843 271.728C446.387 272.016 446.891 272.384 447.355 272.832L446.731 273.792Z" fill="black"/>
</svg>
