<svg width="90" height="50" viewBox="0 0 450 249" fill="none" xmlns="http://www.w3.org/2000/svg">
<rect width="26.8276" height="132.299" rx="7.09616" transform="matrix(0.845742 0.533591 -0.511464 0.859305 67.7168 60.5)" fill="white"/>
<path fill-rule="evenodd" clip-rule="evenodd" d="M107.752 112.962C105.041 108.128 98.0838 108.128 95.3732 112.962L59.0928 177.659C56.4403 182.389 59.859 188.226 65.2823 188.226H75.1689L96.0873 153.081C98.0918 149.714 102.404 148.679 105.718 150.77L116.404 157.512C119.719 159.603 120.781 164.029 118.777 167.396L106.379 188.226H137.843C143.266 188.226 146.685 182.389 144.032 177.659L107.752 112.962Z" fill="white"/>
<path d="M245.237 105.5H254.197V169.5H245.237L244.917 157.596C242.827 161.649 239.904 164.935 236.149 167.452C232.395 169.927 227.915 171.164 222.709 171.164C218.016 171.164 213.621 170.289 209.525 168.54C205.429 166.748 201.824 164.295 198.709 161.18C195.595 158.065 193.163 154.46 191.413 150.364C189.664 146.268 188.789 141.873 188.789 137.18C188.789 132.572 189.643 128.241 191.349 124.188C193.099 120.135 195.488 116.572 198.517 113.5C201.589 110.428 205.131 108.039 209.141 106.332C213.195 104.583 217.525 103.708 222.133 103.708C227.467 103.708 232.117 104.988 236.085 107.548C240.053 110.065 243.211 113.372 245.557 117.468L245.237 105.5ZM222.517 162.46C227.083 162.46 231.008 161.351 234.293 159.132C237.579 156.871 240.096 153.841 241.845 150.044C243.637 146.247 244.533 142.065 244.533 137.5C244.533 132.807 243.637 128.583 241.845 124.828C240.053 121.031 237.515 118.023 234.229 115.804C230.944 113.585 227.04 112.476 222.517 112.476C217.995 112.476 213.856 113.607 210.101 115.868C206.389 118.087 203.424 121.095 201.205 124.892C199.029 128.689 197.941 132.892 197.941 137.5C197.941 142.151 199.072 146.375 201.333 150.172C203.595 153.927 206.581 156.913 210.293 159.132C214.048 161.351 218.123 162.46 222.517 162.46ZM311.45 153.436L319.45 157.788C316.549 161.841 312.858 165.084 308.378 167.516C303.941 169.948 299.12 171.164 293.914 171.164C288.026 171.164 282.65 169.649 277.786 166.62C272.965 163.591 269.104 159.537 266.202 154.46C263.344 149.34 261.914 143.687 261.914 137.5C261.914 132.807 262.746 128.433 264.41 124.38C266.074 120.284 268.357 116.7 271.258 113.628C274.202 110.513 277.616 108.081 281.498 106.332C285.381 104.583 289.52 103.708 293.914 103.708C299.12 103.708 303.941 104.924 308.378 107.356C312.858 109.788 316.549 113.052 319.45 117.148L311.45 121.436C309.232 118.62 306.565 116.465 303.45 114.972C300.336 113.436 297.157 112.668 293.914 112.668C289.605 112.668 285.701 113.82 282.202 116.124C278.704 118.385 275.93 121.393 273.882 125.148C271.877 128.903 270.874 133.02 270.874 137.5C270.874 141.98 271.898 146.097 273.946 149.852C276.037 153.607 278.832 156.615 282.33 158.876C285.829 161.095 289.69 162.204 293.914 162.204C297.413 162.204 300.698 161.393 303.77 159.772C306.842 158.151 309.402 156.039 311.45 153.436ZM358.289 171.164C352.401 171.164 347.025 169.649 342.161 166.62C337.34 163.591 333.479 159.537 330.577 154.46C327.719 149.34 326.289 143.687 326.289 137.5C326.289 132.807 327.121 128.433 328.785 124.38C330.449 120.284 332.732 116.7 335.633 113.628C338.577 110.513 341.991 108.081 345.873 106.332C349.756 104.583 353.895 103.708 358.289 103.708C364.177 103.708 369.532 105.223 374.353 108.252C379.217 111.281 383.079 115.356 385.937 120.476C388.839 125.596 390.289 131.271 390.289 137.5C390.289 142.151 389.457 146.503 387.793 150.556C386.129 154.609 383.825 158.193 380.881 161.308C377.98 164.38 374.588 166.791 370.705 168.54C366.865 170.289 362.727 171.164 358.289 171.164ZM358.289 162.204C362.641 162.204 366.545 161.073 370.001 158.812C373.5 156.508 376.252 153.479 378.257 149.724C380.305 145.969 381.329 141.895 381.329 137.5C381.329 133.02 380.305 128.903 378.257 125.148C376.209 121.351 373.436 118.321 369.937 116.06C366.481 113.799 362.599 112.668 358.289 112.668C353.937 112.668 350.012 113.82 346.513 116.124C343.057 118.385 340.305 121.393 338.257 125.148C336.252 128.903 335.249 133.02 335.249 137.5C335.249 142.108 336.295 146.289 338.385 150.044C340.476 153.756 343.271 156.721 346.769 158.94C350.268 161.116 354.108 162.204 358.289 162.204ZM421.03 170.716C417.532 170.631 414.118 169.991 410.79 168.796C407.462 167.601 404.561 165.98 402.086 163.932C399.612 161.884 397.841 159.559 396.774 156.956L404.518 153.628C405.201 155.292 406.46 156.828 408.294 158.236C410.172 159.601 412.305 160.711 414.694 161.564C417.084 162.375 419.452 162.78 421.798 162.78C424.401 162.78 426.833 162.353 429.094 161.5C431.356 160.647 433.19 159.431 434.598 157.852C436.049 156.231 436.774 154.332 436.774 152.156C436.774 149.809 436.006 147.975 434.47 146.652C432.934 145.287 430.993 144.22 428.646 143.452C426.3 142.641 423.889 141.873 421.414 141.148C416.892 139.911 412.902 138.545 409.446 137.052C405.99 135.559 403.281 133.66 401.318 131.356C399.398 129.009 398.438 126.001 398.438 122.332C398.438 118.449 399.526 115.1 401.702 112.284C403.921 109.425 406.801 107.228 410.342 105.692C413.926 104.113 417.745 103.324 421.798 103.324C427.004 103.324 431.74 104.455 436.006 106.716C440.316 108.977 443.43 111.985 445.35 115.74L438.118 120.028C437.35 118.279 436.134 116.764 434.47 115.484C432.806 114.204 430.908 113.201 428.774 112.476C426.684 111.751 424.55 111.367 422.374 111.324C419.644 111.281 417.105 111.687 414.758 112.54C412.412 113.351 410.513 114.567 409.062 116.188C407.654 117.809 406.95 119.793 406.95 122.14C406.95 124.487 407.654 126.279 409.062 127.516C410.47 128.711 412.369 129.692 414.758 130.46C417.19 131.185 419.921 132.039 422.95 133.02C426.833 134.257 430.481 135.665 433.894 137.244C437.308 138.823 440.06 140.785 442.15 143.132C444.241 145.479 445.265 148.444 445.222 152.028C445.222 155.868 444.07 159.217 441.766 162.076C439.462 164.935 436.476 167.132 432.806 168.668C429.137 170.161 425.212 170.844 421.03 170.716Z" fill="white"/>
</svg>
