<svg width="1075" height="306" viewBox="0 0 1075 306" fill="none" xmlns="http://www.w3.org/2000/svg">
<g clip-path="url(#clip0_5_8)">
<path d="M201.633 25.012L176.105 8.87439C168.187 3.86896 157.886 6.34586 153.098 14.4067L8.7912 257.33C4.00273 265.391 6.53978 275.983 14.4579 280.988L39.986 297.126C47.9041 302.131 58.2048 299.655 62.9932 291.594L207.3 48.6706C212.088 40.6098 209.551 30.0175 201.633 25.012Z" fill="url(#paint0_linear_5_8)"/>
<path fill-rule="evenodd" clip-rule="evenodd" d="M257.408 125.383C250.931 113.812 234.311 113.812 227.836 125.383L141.166 280.24C134.83 291.562 142.997 305.533 155.952 305.533H179.57L229.542 221.411C234.33 213.352 244.632 210.874 252.549 215.879L278.076 232.017C285.995 237.022 288.532 247.616 283.745 255.675L254.128 305.533H329.292C342.247 305.533 350.414 291.562 344.076 280.24L257.408 125.383Z" fill="url(#paint1_linear_5_8)"/>
<path d="M585.844 107.522H607.248V260.711H585.844L585.08 232.218C580.087 241.919 573.104 249.784 564.134 255.809C555.166 261.733 544.464 264.694 532.027 264.694C520.816 264.694 510.317 262.599 500.532 258.413C490.747 254.124 482.135 248.252 474.694 240.796C467.255 233.34 461.445 224.711 457.264 214.907C453.086 205.103 450.996 194.584 450.996 183.351C450.996 172.321 453.036 161.954 457.111 152.253C461.292 142.552 466.999 134.024 474.235 126.671C481.574 119.318 490.035 113.599 499.615 109.514C509.299 105.327 519.643 103.233 530.651 103.233C543.393 103.233 554.502 106.297 563.981 112.424C573.46 118.449 581.004 126.364 586.608 136.168L585.844 107.522ZM531.568 243.86C542.476 243.86 551.852 241.206 559.7 235.894C567.55 230.482 573.563 223.23 577.741 214.141C582.022 205.053 584.162 195.043 584.162 184.116C584.162 172.883 582.022 162.773 577.741 153.785C573.46 144.697 567.397 137.497 559.547 132.185C551.7 126.874 542.373 124.22 531.568 124.22C520.766 124.22 510.878 126.927 501.908 132.339C493.04 137.65 485.957 144.85 480.656 153.938C475.458 163.027 472.859 173.087 472.859 184.116C472.859 195.249 475.561 205.359 480.962 214.448C486.366 223.436 493.499 230.583 502.367 235.894C511.337 241.206 521.072 243.86 531.568 243.86ZM744.02 222.26L763.131 232.677C756.2 242.378 747.383 250.141 736.681 255.962C726.081 261.783 714.564 264.694 702.128 264.694C688.062 264.694 675.219 261.067 663.6 253.817C652.083 246.567 642.86 236.864 635.927 224.712C629.1 212.456 625.683 198.926 625.683 184.116C625.683 172.883 627.671 162.414 631.646 152.713C635.621 142.909 641.075 134.33 648.005 126.977C655.038 119.521 663.194 113.7 672.467 109.514C681.743 105.327 691.631 103.233 702.128 103.233C714.564 103.233 726.081 106.143 736.681 111.965C747.383 117.786 756.2 125.598 763.131 135.402L744.02 145.666C738.721 138.926 732.35 133.768 724.908 130.194C717.469 126.517 709.875 124.679 702.128 124.679C691.834 124.679 682.508 127.437 674.149 132.951C665.793 138.363 659.166 145.563 654.274 154.551C649.484 163.539 647.088 173.393 647.088 184.116C647.088 194.84 649.534 204.694 654.427 213.682C659.422 222.67 666.099 229.87 674.455 235.282C682.814 240.593 692.037 243.247 702.128 243.247C710.487 243.247 718.334 241.306 725.673 237.426C733.011 233.546 739.127 228.491 744.02 222.26ZM855.913 264.694C841.847 264.694 829.004 261.067 817.385 253.817C805.868 246.567 796.644 236.864 789.712 224.712C782.884 212.456 779.468 198.926 779.468 184.116C779.468 172.883 781.456 162.414 785.431 152.713C789.406 142.909 794.86 134.33 801.79 126.977C808.823 119.521 816.978 113.7 826.252 109.514C835.528 105.327 845.416 103.233 855.913 103.233C869.978 103.233 882.771 106.859 894.288 114.109C905.907 121.359 915.133 131.113 921.961 143.368C928.893 155.623 932.357 169.207 932.357 184.116C932.357 195.249 930.37 205.666 926.394 215.367C922.419 225.068 916.915 233.647 909.882 241.103C902.952 248.456 894.849 254.227 885.573 258.413C876.4 262.599 866.515 264.694 855.913 264.694ZM855.913 243.247C866.309 243.247 875.635 240.54 883.891 235.128C892.25 229.614 898.824 222.363 903.614 213.376C908.506 204.388 910.953 194.636 910.953 184.116C910.953 173.393 908.506 163.539 903.614 154.551C898.721 145.463 892.097 138.21 883.738 132.798C875.482 127.386 866.209 124.679 855.913 124.679C845.516 124.679 836.14 127.437 827.781 132.951C819.525 138.363 812.951 145.563 808.058 154.551C803.269 163.539 800.873 173.393 800.873 184.116C800.873 195.146 803.371 205.154 808.364 214.141C813.359 223.026 820.036 230.123 828.393 235.435C836.751 240.643 845.925 243.247 855.913 243.247ZM1005.79 263.621C997.438 263.418 989.282 261.886 981.332 259.026C973.382 256.165 966.451 252.285 960.539 247.383C954.629 242.481 950.398 236.916 947.849 230.686L966.349 222.72C967.98 226.703 970.988 230.379 975.369 233.75C979.855 237.017 984.951 239.674 990.658 241.715C996.367 243.657 1002.02 244.626 1007.63 244.626C1013.85 244.626 1019.66 243.604 1025.06 241.562C1030.46 239.521 1034.84 236.61 1038.21 232.831C1041.67 228.951 1043.4 224.405 1043.4 219.197C1043.4 213.579 1041.57 209.189 1037.9 206.022C1034.23 202.755 1029.59 200.201 1023.99 198.363C1018.38 196.422 1012.62 194.584 1006.71 192.848C995.909 189.887 986.377 186.618 978.121 183.044C969.865 179.471 963.394 174.925 958.704 169.41C954.117 163.793 951.824 156.593 951.824 147.811C951.824 138.516 954.423 130.5 959.621 123.76C964.922 116.917 971.802 111.658 980.262 107.982C988.823 104.202 997.946 102.314 1007.63 102.314C1020.07 102.314 1031.38 105.021 1041.57 110.433C1051.87 115.845 1059.31 123.044 1063.89 132.032L1046.62 142.296C1044.78 138.11 1041.88 134.483 1037.9 131.42C1033.93 128.356 1029.39 125.955 1024.29 124.22C1019.3 122.484 1014.2 121.565 1009 121.462C1002.48 121.359 996.418 122.331 990.811 124.373C985.206 126.314 980.67 129.225 977.204 133.105C973.84 136.985 972.158 141.733 972.158 147.351C972.158 152.969 973.84 157.258 977.204 160.219C980.567 163.079 985.104 165.427 990.811 167.266C996.621 169.001 1003.14 171.045 1010.38 173.393C1019.66 176.354 1028.37 179.724 1036.52 183.504C1044.68 187.283 1051.25 191.979 1056.25 197.597C1061.24 203.215 1063.69 210.312 1063.59 218.89C1063.59 228.082 1060.83 236.098 1055.33 242.941C1049.83 249.784 1042.69 255.043 1033.93 258.719C1025.16 262.293 1015.78 263.928 1005.79 263.621Z" fill="url(#paint2_linear_5_8)"/>
</g>
<defs>
<linearGradient id="paint0_linear_5_8" x1="188.869" y1="16.9432" x2="19.8125" y2="284.373" gradientUnits="userSpaceOnUse">
<stop stop-color="#4E4FEB" stop-opacity="0.5"/>
<stop offset="1"/>
</linearGradient>
<linearGradient id="paint1_linear_5_8" x1="242.622" y1="116.705" x2="242.622" y2="305.533" gradientUnits="userSpaceOnUse">
<stop stop-color="#4E4FEB" stop-opacity="0.5"/>
<stop offset="1"/>
</linearGradient>
<linearGradient id="paint2_linear_5_8" x1="757.444" y1="102.314" x2="757.444" y2="264.694" gradientUnits="userSpaceOnUse">
<stop stop-color="#4E4FEB" stop-opacity="0.5"/>
<stop offset="1"/>
</linearGradient>
<clipPath id="clip0_5_8">
<rect width="1075" height="306" fill="white"/>
</clipPath>
</defs>
</svg>
